<?xml version="1.0" encoding="UTF-8" standalone="no"?>
<!-- Generated by IcoMoon.io -->

<svg
   xmlns:dc="http://purl.org/dc/elements/1.1/"
   xmlns:cc="http://creativecommons.org/ns#"
   xmlns:rdf="http://www.w3.org/1999/02/22-rdf-syntax-ns#"
   xmlns:svg="http://www.w3.org/2000/svg"
   xmlns="http://www.w3.org/2000/svg"
   xmlns:sodipodi="http://sodipodi.sourceforge.net/DTD/sodipodi-0.dtd"
   xmlns:inkscape="http://www.inkscape.org/namespaces/inkscape"
   version="1.1"
   width="32"
   height="32"
   viewBox="0 0 32 32"
   id="svg2"
   inkscape:version="0.91 r13725"
   sodipodi:docname="document-bookmark.svg">
  <metadata
     id="metadata10">
    <rdf:RDF>
      <cc:Work
         rdf:about="">
        <dc:format>image/svg+xml</dc:format>
        <dc:type
           rdf:resource="http://purl.org/dc/dcmitype/StillImage" />
      </cc:Work>
    </rdf:RDF>
  </metadata>
  <defs
     id="defs8" />
  <sodipodi:namedview
     pagecolor="#ffffff"
     bordercolor="#666666"
     borderopacity="1"
     objecttolerance="10"
     gridtolerance="10"
     guidetolerance="10"
     inkscape:pageopacity="0"
     inkscape:pageshadow="2"
     inkscape:window-width="1366"
     inkscape:window-height="705"
     id="namedview6"
     showgrid="true"
     showguides="false"
     inkscape:zoom="14.75"
     inkscape:cx="5.9732996"
     inkscape:cy="14.14996"
     inkscape:window-x="-8"
     inkscape:window-y="-8"
     inkscape:window-maximized="1"
     inkscape:current-layer="svg2">
    <inkscape:grid
       type="xygrid"
       id="grid3338" />
  </sodipodi:namedview>
  <path
     d="m 14,4 3,0 0,4.994 C 17,10.113 17.895,11 18.998,11 L 23,11 23,28.007 C 23,28.555 22.552,29 22,29 L 7,29 C 6.455,29 6,28.554 6,28.005 L 6,4.996 C 6,4.456 6.446,4.001 6.996,4.001 l 1.004,0 0,11 3,-3 3,3 0,-11 z M 17.5,3 7.003,3 C 5.897,3 5,3.898 5,5.007 l 0,22.985 c 0,1.109 0.891,2.007 1.997,2.007 l 15.005,0 c 1.103,0 1.997,-0.898 1.997,-1.991 l 0,-18.009 -6,-7 -0.5,0 z M 18,4.5 22.7,10 18.997,10 C 18.451,10 18,9.548 18,8.991 L 18,4.5 Z M 9,4 l 4,0 0,8.6 -2,-2 -2,2 L 9,4 Z"
     id="path4"
     inkscape:connector-curvature="0" />
</svg>
