<?xml version="1.0" encoding="UTF-8" standalone="no"?>
<!-- Generated by IcoMoon.io -->

<svg
   xmlns:dc="http://purl.org/dc/elements/1.1/"
   xmlns:cc="http://creativecommons.org/ns#"
   xmlns:rdf="http://www.w3.org/1999/02/22-rdf-syntax-ns#"
   xmlns:svg="http://www.w3.org/2000/svg"
   xmlns="http://www.w3.org/2000/svg"
   xmlns:sodipodi="http://sodipodi.sourceforge.net/DTD/sodipodi-0.dtd"
   xmlns:inkscape="http://www.inkscape.org/namespaces/inkscape"
   version="1.1"
   width="32"
   height="32"
   viewBox="0 0 32 32"
   id="svg2"
   inkscape:version="0.91 r13725"
   sodipodi:docname="folder-inkscape.svg">
  <metadata
     id="metadata10">
    <rdf:RDF>
      <cc:Work
         rdf:about="">
        <dc:format>image/svg+xml</dc:format>
        <dc:type
           rdf:resource="http://purl.org/dc/dcmitype/StillImage" />
        <dc:title></dc:title>
      </cc:Work>
    </rdf:RDF>
  </metadata>
  <defs
     id="defs8" />
  <sodipodi:namedview
     pagecolor="#ffffff"
     bordercolor="#666666"
     borderopacity="1"
     objecttolerance="10"
     gridtolerance="10"
     guidetolerance="10"
     inkscape:pageopacity="0"
     inkscape:pageshadow="2"
     inkscape:window-width="1366"
     inkscape:window-height="705"
     id="namedview6"
     showgrid="true"
     inkscape:zoom="14.75"
     inkscape:cx="26.185068"
     inkscape:cy="16.893204"
     inkscape:window-x="-8"
     inkscape:window-y="-8"
     inkscape:window-maximized="1"
     inkscape:current-layer="svg2">
    <inkscape:grid
       type="xygrid"
       id="grid3338" />
  </sodipodi:namedview>
  <path
     d="M 2,11 2,6.992 C 2,6.455 2.4440059,5.9974633 2.992,6 L 13.976271,6.050847 C 14.494479,6.033153 14.989532,6.5491639 14.987119,6.9999996 15,8 16,9 17.002716,9.017042 L 27.997,9 C 28.545999,8.999149 29,9.4988475 29,10.051847 l 3e-6,0.965102 z m 0,1 27,0.0339 0,12.9651 C 29,25.555 28.555,26 28.007,26 L 2.993,26 C 2.446,26 2,25.556 2,25.008 Z M 16.016949,6.9830509 C 16.016949,6.0169492 15,5 14,5 L 3.003,5 C 1.897,5 1,5.89 1,6.991 L 1,25.009 C 1,26.109 1.9,27 2.993,27 l 25.013,0 c 1.101,0 1.993,-0.893 1.993,-1.995 l 0,-14.823559 c 0,-1.1020003 -0.897002,-2.1627821 -2.006,-2.1644918 L 16.999001,7.9999997 C 16.575605,8.0225987 16.016949,7.3220339 16.016949,6.9830509 Z"
     id="path4"
     inkscape:connector-curvature="0"
     sodipodi:nodetypes="csscccssccccsssscsssssssssscs" />
</svg>
